<svg width="36" height="36" viewBox="0 0 36 36" fill="none" xmlns="http://www.w3.org/2000/svg">
<g clip-path="url(#clip0_1_186)">
<path d="M18 36C27.9411 36 36 27.9411 36 18C36 8.05887 27.9411 0 18 0C8.05887 0 0 8.05887 0 18C0 27.9411 8.05887 36 18 36Z" fill="#F1F1F1"/>
<path d="M10.38 28.56C10.1661 28.5616 9.95562 28.5063 9.77 28.4C9.59554 28.3127 9.44886 28.1785 9.34642 28.0125C9.24397 27.8464 9.18981 27.6551 9.19 27.46V8.54003C9.19514 8.38942 9.23009 8.24132 9.29283 8.1043C9.35557 7.96728 9.44485 7.84406 9.55552 7.74177C9.66618 7.63947 9.79603 7.56014 9.93755 7.50834C10.0791 7.45655 10.2295 7.43333 10.38 7.44003H25.62C25.7706 7.43333 25.9209 7.45655 26.0625 7.50834C26.204 7.56014 26.3338 7.63947 26.4445 7.74177C26.5552 7.84406 26.6444 7.96728 26.7072 8.1043C26.7699 8.24132 26.8049 8.38942 26.81 8.54003V27.46C26.8102 27.6551 26.756 27.8464 26.6536 28.0125C26.5511 28.1785 26.4045 28.3127 26.23 28.4C26.0319 28.518 25.8056 28.5803 25.575 28.5803C25.3444 28.5803 25.1181 28.518 24.92 28.4L18 23.82L11.08 28.35C10.8728 28.4882 10.629 28.5613 10.38 28.56ZM10.49 8.74003V27.19L18 22.26L25.51 27.19V8.74003H10.49Z" fill="#404040"/>
</g>
<defs>
<clipPath id="clip0_1_186">
<rect width="36" height="36" fill="white"/>
</clipPath>
</defs>
</svg>
