<svg width="52" height="52" viewBox="0 0 52 52" fill="none" xmlns="http://www.w3.org/2000/svg">
<g clip-path="url(#clip0_6_115)">
<path d="M25.82 51.64C40.08 51.64 51.64 40.08 51.64 25.82C51.64 11.56 40.08 0 25.82 0C11.56 0 0 11.56 0 25.82C0 40.08 11.56 51.64 25.82 51.64Z" fill="white"/>
<path d="M26.66 25C26.4366 24.7861 26.1393 24.6667 25.83 24.6667C25.5207 24.6667 25.2234 24.7861 25 25L17.07 33.5C16.9665 33.6108 16.8859 33.7409 16.8329 33.8829C16.7799 34.0249 16.7555 34.176 16.761 34.3275C16.7666 34.479 16.8021 34.6279 16.8654 34.7656C16.9287 34.9033 17.0187 35.0272 17.13 35.13C17.2399 35.2332 17.3692 35.3136 17.5104 35.3665C17.6516 35.4194 17.8019 35.4438 17.9525 35.4382C18.1032 35.4326 18.2513 35.3972 18.3882 35.334C18.525 35.2708 18.648 35.1811 18.75 35.07L25.84 27.47L32.92 35.07C33.0267 35.1865 33.1565 35.2796 33.3011 35.3433C33.4457 35.407 33.602 35.4399 33.76 35.44C34.0536 35.4433 34.337 35.3321 34.55 35.13C34.7725 34.9209 34.9036 34.6325 34.9149 34.3274C34.9261 34.0222 34.8166 33.7249 34.61 33.5L26.66 25Z" fill="#A67A44"/>
<path d="M17.89 18.47H33.74C34.045 18.47 34.3375 18.3488 34.5532 18.1332C34.7688 17.9175 34.89 17.625 34.89 17.32C34.89 17.015 34.7688 16.7225 34.5532 16.5068C34.3375 16.2911 34.045 16.17 33.74 16.17H17.89C17.585 16.17 17.2925 16.2911 17.0768 16.5068C16.8612 16.7225 16.74 17.015 16.74 17.32C16.74 17.625 16.8612 17.9175 17.0768 18.1332C17.2925 18.3488 17.585 18.47 17.89 18.47Z" fill="#A67A44"/>
</g>
<defs>
<clipPath id="clip0_6_115">
<rect width="51.64" height="51.64" fill="white"/>
</clipPath>
</defs>
</svg>
