<svg width="30" height="30" viewBox="0 0 30 30" fill="none" xmlns="http://www.w3.org/2000/svg">
<g clip-path="url(#clip0_1_205)">
<path d="M15 30C23.2843 30 30 23.2843 30 15C30 6.71573 23.2843 0 15 0C6.71573 0 0 6.71573 0 15C0 23.2843 6.71573 30 15 30Z" fill="white"/>
<path d="M12.07 22.06C13.334 22.0986 14.593 21.8853 15.7737 21.4324C16.9544 20.9795 18.0332 20.2962 18.9472 19.4223C19.8612 18.5483 20.5921 17.5012 21.0973 16.3419C21.6025 15.1827 21.872 13.9344 21.89 12.67C21.89 12.53 21.89 12.39 21.89 12.25C22.5609 11.7873 23.1434 11.2082 23.61 10.54C22.9702 10.8037 22.2973 10.9786 21.61 11.06C22.3217 10.6543 22.8618 10.004 23.13 9.22999C22.4651 9.59757 21.7462 9.85746 21 9.99999C20.6672 9.67455 20.2731 9.41854 19.8404 9.24686C19.4078 9.07518 18.9454 8.99126 18.48 8.99999C18.0353 8.98667 17.5923 9.06129 17.1764 9.21957C16.7606 9.37785 16.3801 9.61668 16.0568 9.92234C15.7335 10.228 15.4737 10.5945 15.2923 11.0008C15.111 11.4071 15.0116 11.8452 15 12.29C15.0013 12.542 15.0281 12.7933 15.08 13.04C13.7271 12.9776 12.4012 12.6394 11.1837 12.0461C9.96624 11.4529 8.88283 10.617 8 9.58999C7.55636 10.3097 7.41259 11.1747 7.59956 11.9992C7.78652 12.8237 8.28932 13.542 9 14C8.45627 13.9791 7.92375 13.8391 7.44 13.59C7.4519 14.3682 7.73518 15.1178 8.24093 15.7093C8.74667 16.3009 9.44312 16.6973 10.21 16.83C9.91351 16.9111 9.60737 16.9514 9.3 16.95C9.08193 16.9503 8.86431 16.9303 8.65 16.89C8.88816 17.5571 9.32591 18.1348 9.90379 18.5445C10.4817 18.9542 11.1716 19.1761 11.88 19.18C10.6409 20.103 9.13511 20.5979 7.59 20.59C7.31687 20.6052 7.04312 20.6052 6.77 20.59C8.36107 21.5568 10.1882 22.0655 12.05 22.06" fill="#404040"/>
</g>
<defs>
<clipPath id="clip0_1_205">
<rect width="30" height="30" fill="white"/>
</clipPath>
</defs>
</svg>
