<svg width="30" height="30" viewBox="0 0 30 30" fill="none" xmlns="http://www.w3.org/2000/svg">
<g clip-path="url(#clip0_1_199)">
<path d="M15 30C23.2843 30 30 23.2843 30 15C30 6.71573 23.2843 0 15 0C6.71573 0 0 6.71573 0 15C0 23.2843 6.71573 30 15 30Z" fill="white"/>
<path d="M14.53 24.27H14.28C14.2207 24.2442 14.1672 24.2066 14.1227 24.1595C14.0783 24.1125 14.0438 24.0569 14.0214 23.9962C13.999 23.9355 13.989 23.8709 13.9922 23.8062C13.9954 23.7416 14.0117 23.6782 14.04 23.62C14.04 23.52 14.11 23.42 14.15 23.32C14.3209 22.8626 14.409 22.3783 14.41 21.89C14.4174 21.8278 14.4111 21.7647 14.3915 21.7051C14.3719 21.6456 14.3396 21.591 14.2967 21.5453C14.2538 21.4996 14.2015 21.4638 14.1433 21.4404C14.0852 21.417 14.0226 21.4067 13.96 21.41C13.5674 21.3777 13.1769 21.3243 12.79 21.25C10.4729 20.8855 8.37188 19.6783 6.89 17.86C6.05131 16.8827 5.52335 15.6774 5.37371 14.3983C5.22406 13.1192 5.45954 11.8245 6.05 10.68C6.83223 9.07749 8.12747 7.78225 9.73 7.00002C12.095 5.75833 14.8262 5.40363 17.43 6.00002C19.6904 6.39748 21.728 7.60649 23.16 9.40002C23.7879 10.1465 24.2384 11.0257 24.4774 11.9714C24.7164 12.9172 24.7378 13.9048 24.54 14.86C24.2232 16.2759 23.5003 17.5687 22.46 18.58C21.2373 19.8106 19.8977 20.9192 18.46 21.89C17.1991 22.7992 15.8606 23.5956 14.46 24.27H14.53ZM17.61 13.52V11.71C17.61 11.36 17.43 11.17 17.13 11.16C16.83 11.15 16.65 11.36 16.65 11.72V13.63C16.65 13.72 16.65 13.84 16.65 13.88C16.65 13.92 16.51 13.79 16.46 13.72C16.23 13.42 16.01 13.11 15.78 12.8C15.44 12.34 15.11 11.88 14.78 11.43C14.7455 11.3659 14.6976 11.3098 14.6396 11.2657C14.5815 11.2216 14.5147 11.1905 14.4437 11.1744C14.3726 11.1583 14.2989 11.1576 14.2276 11.1724C14.1562 11.1871 14.0888 11.217 14.03 11.26C13.9642 11.3244 13.9139 11.4028 13.8827 11.4894C13.8515 11.576 13.8403 11.6685 13.85 11.76V15.31C13.8462 15.4091 13.8633 15.5079 13.9 15.6C13.9355 15.6982 14.0034 15.7814 14.0924 15.8359C14.1815 15.8904 14.2864 15.913 14.39 15.9C14.4989 15.8904 14.6006 15.8414 14.6761 15.7623C14.7515 15.6832 14.7956 15.5793 14.8 15.47C14.805 15.3801 14.805 15.2899 14.8 15.2C14.8 14.59 14.8 13.99 14.8 13.39C14.8 13.31 14.8 13.2 14.86 13.17C14.92 13.14 14.98 13.24 15.02 13.3L15.65 14.16C16.03 14.67 16.39 15.16 16.77 15.68C16.8238 15.7698 16.9067 15.8386 17.0048 15.875C17.103 15.9113 17.2107 15.9131 17.31 15.88C17.4137 15.8475 17.5039 15.782 17.567 15.6936C17.6302 15.6052 17.6628 15.4986 17.66 15.39V13.52H17.61ZM18.38 13.52V15.33C18.38 15.72 18.56 15.89 18.94 15.89H20.69C20.7557 15.8985 20.8225 15.893 20.8859 15.8738C20.9494 15.8546 21.0081 15.8223 21.0581 15.7788C21.1082 15.7354 21.1485 15.6818 21.1764 15.6217C21.2043 15.5616 21.2191 15.4963 21.22 15.43C21.2187 15.3635 21.2042 15.2979 21.1772 15.237C21.1503 15.1762 21.1114 15.1214 21.063 15.0757C21.0146 15.0301 20.9575 14.9946 20.8952 14.9713C20.8328 14.948 20.7665 14.9373 20.7 14.94H20C19.21 14.94 19.35 15.06 19.32 14.26C19.32 14.07 19.32 14 19.57 14.01C19.96 14.01 20.34 14.01 20.73 14.01C20.8556 14.01 20.9762 13.9608 21.0659 13.873C21.1557 13.7851 21.2074 13.6656 21.21 13.54C21.213 13.4753 21.2022 13.4108 21.1785 13.3505C21.1548 13.2903 21.1186 13.2357 21.0724 13.1904C21.0261 13.1451 20.9708 13.1101 20.9101 13.0876C20.8494 13.0651 20.7846 13.0557 20.72 13.06H20C19.34 13.06 19.35 13.06 19.35 12.41C19.35 12.16 19.44 12.09 19.67 12.1H20.67C20.7878 12.1022 20.9033 12.0672 21 12C21.0907 11.9567 21.1635 11.883 21.2055 11.7916C21.2475 11.7003 21.2562 11.5971 21.23 11.5C21.2128 11.3923 21.1563 11.2948 21.0713 11.2264C20.9863 11.1581 20.8789 11.1237 20.77 11.13H19C18.56 11.13 18.41 11.29 18.41 11.74V13.51L18.38 13.52ZM8.81 13.51C8.81 14.12 8.81 14.74 8.81 15.35C8.81 15.74 8.98 15.9 9.37 15.9H11.08C11.1494 15.9083 11.2197 15.9023 11.2867 15.8823C11.3536 15.8623 11.4157 15.8288 11.4692 15.7837C11.5226 15.7387 11.5663 15.6832 11.5974 15.6207C11.6285 15.5581 11.6464 15.4898 11.65 15.42C11.645 15.352 11.6264 15.2858 11.5954 15.2251C11.5643 15.1644 11.5214 15.1106 11.4692 15.0668C11.417 15.023 11.3566 14.9901 11.2914 14.97C11.2263 14.9499 11.1578 14.9431 11.09 14.95H10.09C9.74 14.95 9.73 14.95 9.73 14.6C9.73 13.66 9.73 12.73 9.73 11.79C9.76005 11.6719 9.76005 11.5481 9.73 11.43C9.68467 11.3359 9.60799 11.2604 9.51311 11.2166C9.41823 11.1728 9.31106 11.1634 9.21 11.19C9.10673 11.207 9.01319 11.261 8.94691 11.342C8.88064 11.423 8.84618 11.5254 8.85 11.63V13.52L8.81 13.51ZM13.14 13.52C13.14 12.9 13.14 12.28 13.14 11.66C13.1497 11.5946 13.1452 11.5279 13.1268 11.4644C13.1084 11.4008 13.0765 11.342 13.0334 11.292C12.9902 11.2419 12.9367 11.2017 12.8766 11.1742C12.8165 11.1466 12.7511 11.1324 12.685 11.1324C12.6189 11.1324 12.5535 11.1466 12.4934 11.1742C12.4333 11.2017 12.3798 11.2419 12.3366 11.292C12.2935 11.342 12.2616 11.4008 12.2432 11.4644C12.2248 11.5279 12.2203 11.5946 12.23 11.66C12.23 12.9 12.23 14.13 12.23 15.36C12.23 15.7 12.42 15.91 12.71 15.9C13 15.89 13.15 15.69 13.16 15.36V13.53" fill="#404040"/>
</g>
<defs>
<clipPath id="clip0_1_199">
<rect width="30" height="30" fill="white"/>
</clipPath>
</defs>
</svg>
