<svg width="30" height="30" viewBox="0 0 30 30" fill="none" xmlns="http://www.w3.org/2000/svg">
<g clip-path="url(#clip0_1_202)">
<path d="M15 30C23.2843 30 30 23.2843 30 15C30 6.71573 23.2843 0 15 0C6.71573 0 0 6.71573 0 15C0 23.2843 6.71573 30 15 30Z" fill="white"/>
<path d="M21.49 7.69H8.49C8.27424 7.68999 8.06717 7.775 7.91368 7.92663C7.76018 8.07825 7.67263 8.28426 7.67 8.5V21.5C7.67263 21.7157 7.76018 21.9218 7.91368 22.0734C8.06717 22.225 8.27424 22.31 8.49 22.31H15.49V16.66H13.6V14.44H15.5V12.82C15.461 12.4338 15.5071 12.0438 15.6348 11.6772C15.7626 11.3107 15.9691 10.9766 16.2397 10.6984C16.5103 10.4201 16.8386 10.2045 17.2014 10.0665C17.5643 9.92861 17.9529 9.87177 18.34 9.9C18.8947 9.90454 19.4488 9.93792 20 10V12H18.88C17.96 12 17.78 12.43 17.78 13.07V14.48H20L19.72 16.69H17.78V22.35H21.49C21.7058 22.35 21.9128 22.265 22.0663 22.1134C22.2198 21.9618 22.3074 21.7557 22.31 21.54V8.5C22.3074 8.28426 22.2198 8.07825 22.0663 7.92663C21.9128 7.775 21.7058 7.68999 21.49 7.69Z" fill="#404040"/>
</g>
<defs>
<clipPath id="clip0_1_202">
<rect width="30" height="30" fill="white"/>
</clipPath>
</defs>
</svg>
