<svg width="36" height="36" viewBox="0 0 36 36" fill="none" xmlns="http://www.w3.org/2000/svg">
<g clip-path="url(#clip0_1_189)">
<path d="M18 36C27.9411 36 36 27.9411 36 18C36 8.05887 27.9411 0 18 0C8.05887 0 0 8.05887 0 18C0 27.9411 8.05887 36 18 36Z" fill="#F1F1F1"/>
<path d="M14.37 10.44C14.2613 10.154 14.0698 9.90679 13.82 9.73003C13.5793 9.56108 13.294 9.46714 13 9.46003C12.6954 9.45917 12.3982 9.55357 12.15 9.73003C11.8975 9.90401 11.7054 10.1521 11.6 10.44L6.22 25.63C6.18198 25.7333 6.17121 25.8445 6.18872 25.9531C6.20624 26.0617 6.25145 26.164 6.32 26.25C6.38173 26.3413 6.46531 26.4156 6.56312 26.4662C6.66093 26.5169 6.76987 26.5423 6.88 26.54C7.15928 26.5411 7.43172 26.4537 7.65813 26.2901C7.88454 26.1266 8.05325 25.8955 8.14 25.63L9.43 21.74C9.44595 21.6847 9.48055 21.6365 9.52792 21.6037C9.5753 21.5709 9.63256 21.5555 9.69 21.56H16.17C16.2301 21.5544 16.2903 21.5691 16.341 21.6017C16.3918 21.6344 16.4301 21.6831 16.45 21.74L17.69 25.58C17.7797 25.857 17.9547 26.0985 18.19 26.27C18.4291 26.4494 18.7211 26.5444 19.02 26.54C19.1301 26.5423 19.2391 26.5169 19.3369 26.4662C19.4347 26.4156 19.5183 26.3413 19.58 26.25C19.6494 26.1605 19.695 26.0548 19.7125 25.9429C19.73 25.831 19.7188 25.7165 19.68 25.61L14.37 10.44ZM15.78 20C15.7706 20.0184 15.7563 20.0338 15.7386 20.0444C15.7209 20.055 15.7006 20.0604 15.68 20.06H10.18C10.1566 20.0609 10.1333 20.0558 10.1123 20.0453C10.0914 20.0349 10.0734 20.0193 10.06 20C10.0475 19.9806 10.0409 19.9581 10.0409 19.935C10.0409 19.912 10.0475 19.8894 10.06 19.87L12.91 11.17L15.77 19.87C15.7835 19.912 15.7869 19.9565 15.78 20Z" fill="#404040"/>
<path d="M29.78 22.26L26.61 13.74C26.5263 13.5308 26.3839 13.3503 26.2 13.22C26.0155 13.0903 25.7955 13.0205 25.57 13.02H25.4C25.1778 13.0219 24.9614 13.0917 24.78 13.22C24.5932 13.3471 24.45 13.5287 24.37 13.74L21.19 22.26C21.1614 22.3407 21.1525 22.4271 21.1639 22.512C21.1753 22.5968 21.2067 22.6778 21.2555 22.7481C21.3044 22.8184 21.3693 22.8762 21.4448 22.9165C21.5203 22.9568 21.6044 22.9786 21.69 22.98C21.9144 22.9816 22.1327 22.9076 22.31 22.77C22.4998 22.6441 22.6409 22.4571 22.71 22.24L23.32 20.44C23.3304 20.4083 23.3505 20.3807 23.3774 20.361C23.4043 20.3413 23.4366 20.3304 23.47 20.33H27.4C27.4333 20.3304 27.4657 20.3413 27.4926 20.361C27.5195 20.3807 27.5396 20.4083 27.55 20.44L28.16 22.24C28.2291 22.4571 28.3702 22.6441 28.56 22.77C28.7373 22.9076 28.9556 22.9816 29.18 22.98H29.28C29.3665 22.9805 29.4519 22.9598 29.5286 22.9197C29.6053 22.8796 29.671 22.8214 29.72 22.75C29.7725 22.681 29.8057 22.5992 29.8162 22.5131C29.8268 22.427 29.8143 22.3397 29.78 22.26ZM27 19.16H23.92C23.85 19.16 23.83 19.16 23.85 19.05L25.45 14.36L27.05 19.05C27.09 19.12 27.06 19.16 27 19.16Z" fill="#404040"/>
</g>
<defs>
<clipPath id="clip0_1_189">
<rect width="36" height="36" fill="white"/>
</clipPath>
</defs>
</svg>
