<svg width="36" height="36" viewBox="0 0 36 36" fill="none" xmlns="http://www.w3.org/2000/svg">
<g clip-path="url(#clip0_1_193)">
<path d="M18 36C27.9411 36 36 27.9411 36 18C36 8.05887 27.9411 0 18 0C8.05887 0 0 8.05887 0 18C0 27.9411 8.05887 36 18 36Z" fill="#F1F1F1"/>
<path d="M27.8 11.62H25V8.11C25.0053 7.83482 24.9557 7.56133 24.8541 7.30556C24.7524 7.04978 24.6008 6.81684 24.408 6.62036C24.2153 6.42389 23.9853 6.26783 23.7315 6.16131C23.4777 6.05479 23.2052 5.99995 22.93 6H13.07C12.7948 5.99995 12.5223 6.05479 12.2685 6.16131C12.0147 6.26783 11.7847 6.42389 11.592 6.62036C11.3992 6.81684 11.2476 7.04978 11.1459 7.30556C11.0443 7.56133 10.9947 7.83482 11 8.11V11.62H8.2C7.66957 11.62 7.16086 11.8307 6.78579 12.2058C6.41071 12.5809 6.2 13.0896 6.2 13.62V23.36C6.2 23.8904 6.41071 24.3991 6.78579 24.7742C7.16086 25.1493 7.66957 25.36 8.2 25.36H10.83V27.95C10.8165 28.4788 11.0131 28.9914 11.3767 29.3756C11.7403 29.7598 12.2413 29.9843 12.77 30H23.23C23.4962 29.9923 23.7582 29.9316 24.0006 29.8214C24.243 29.7111 24.4609 29.5536 24.6416 29.358C24.8223 29.1624 24.9621 28.9326 25.0529 28.6823C25.1436 28.4319 25.1834 28.166 25.17 27.9V25.27H27.8C28.3304 25.27 28.8391 25.0593 29.2142 24.6842C29.5893 24.3091 29.8 23.8004 29.8 23.27V13.57C29.787 13.0483 29.5705 12.5523 29.1968 12.188C28.8232 11.8237 28.3219 11.6198 27.8 11.62ZM12.31 8.11C12.31 7.9075 12.3897 7.71315 12.532 7.56903C12.6742 7.42491 12.8675 7.34263 13.07 7.34H22.93C23.1325 7.34263 23.3258 7.42491 23.468 7.56903C23.6103 7.71315 23.69 7.9075 23.69 8.11V11.62H12.31V8.11ZM23.87 27.86C23.8871 28.0502 23.8301 28.2396 23.7108 28.3887C23.5916 28.5378 23.4193 28.635 23.23 28.66H12.77C12.5807 28.635 12.4084 28.5378 12.2892 28.3887C12.1699 28.2396 12.1129 28.0502 12.13 27.86V20.72C12.1129 20.5298 12.1699 20.3404 12.2892 20.1913C12.4084 20.0423 12.5807 19.945 12.77 19.92H23.23C23.4193 19.945 23.5916 20.0423 23.7108 20.1913C23.8301 20.3404 23.8871 20.5298 23.87 20.72V27.86ZM28.46 23.31C28.46 23.485 28.3905 23.6529 28.2667 23.7767C28.1429 23.9005 27.975 23.97 27.8 23.97H25.17V20.72C25.1834 20.454 25.1436 20.1881 25.0529 19.9377C24.9621 19.6874 24.8223 19.4576 24.6416 19.262C24.4609 19.0664 24.243 18.9089 24.0006 18.7986C23.7582 18.6884 23.4962 18.6277 23.23 18.62H12.77C12.5038 18.6277 12.2418 18.6884 11.9994 18.7986C11.757 18.9089 11.5391 19.0664 11.3584 19.262C11.1777 19.4576 11.0379 19.6874 10.9471 19.9377C10.8564 20.1881 10.8166 20.454 10.83 20.72V24H8.2C8.11333 24 8.0275 23.9829 7.94743 23.9498C7.86735 23.9166 7.7946 23.868 7.73331 23.8067C7.67202 23.7454 7.62341 23.6726 7.59024 23.5926C7.55707 23.5125 7.54 23.4267 7.54 23.34V13.57C7.54263 13.3967 7.61332 13.2314 7.73681 13.1098C7.8603 12.9881 8.02668 12.92 8.2 12.92H27.8C27.9733 12.92 28.1397 12.9881 28.2632 13.1098C28.3867 13.2314 28.4574 13.3967 28.46 13.57V23.31Z" fill="#404040"/>
<path d="M24.34 15.41C24.1754 15.41 24.0146 15.4589 23.8779 15.5506C23.7412 15.6422 23.6348 15.7725 23.5723 15.9247C23.5098 16.0769 23.4939 16.2443 23.5268 16.4056C23.5596 16.5669 23.6396 16.7147 23.7567 16.8304C23.8738 16.9461 24.0226 17.0243 24.1843 17.0552C24.3459 17.0861 24.5131 17.0682 24.6646 17.0039C24.8161 16.9395 24.945 16.8316 25.035 16.6938C25.125 16.556 25.172 16.3945 25.17 16.23C25.17 16.1214 25.1485 16.014 25.1066 15.9138C25.0648 15.8137 25.0035 15.7229 24.9263 15.6466C24.8491 15.5703 24.7575 15.5101 24.6569 15.4695C24.5562 15.4289 24.4485 15.4086 24.34 15.41Z" fill="#404040"/>
<path d="M21.65 22H14.35C14.1776 22 14.0123 22.0685 13.8904 22.1904C13.7685 22.3123 13.7 22.4776 13.7 22.65C13.7 22.8224 13.7685 22.9877 13.8904 23.1096C14.0123 23.2315 14.1776 23.3 14.35 23.3H21.65C21.8224 23.3 21.9877 23.2315 22.1096 23.1096C22.2315 22.9877 22.3 22.8224 22.3 22.65C22.3 22.4776 22.2315 22.3123 22.1096 22.1904C21.9877 22.0685 21.8224 22 21.65 22Z" fill="#404040"/>
<path d="M21.65 25.26H14.35C14.1776 25.26 14.0123 25.3285 13.8904 25.4504C13.7685 25.5723 13.7 25.7376 13.7 25.91C13.7 26.0824 13.7685 26.2477 13.8904 26.3696C14.0123 26.4915 14.1776 26.56 14.35 26.56H21.65C21.8224 26.56 21.9877 26.4915 22.1096 26.3696C22.2315 26.2477 22.3 26.0824 22.3 25.91C22.3 25.7376 22.2315 25.5723 22.1096 25.4504C21.9877 25.3285 21.8224 25.26 21.65 25.26Z" fill="#404040"/>
</g>
<defs>
<clipPath id="clip0_1_193">
<rect width="36" height="36" fill="white"/>
</clipPath>
</defs>
</svg>
