<svg width="219" height="40" viewBox="0 0 219 40" fill="none" xmlns="http://www.w3.org/2000/svg">
<g clip-path="url(#clip0_1_226)">
<path fill-rule="evenodd" clip-rule="evenodd" d="M123.863 10.286C123.863 10.286 124.758 9.88804 124.981 8.92004H126.969V10.584H123.764L123.863 10.286ZM130.103 15.614C130.103 15.614 130.998 15.216 131.222 14.247H133.21V15.911H130.004L130.104 15.614H130.103ZM126.348 20.327C126.348 20.327 127.242 19.929 127.467 18.96H129.454V20.626H126.249L126.349 20.327H126.348Z" fill="#231916"/>
<path fill-rule="evenodd" clip-rule="evenodd" d="M113.103 10.89H126.962V10.267H113.103V10.89ZM110.335 16.201H133.217V15.58H110.335V16.201ZM117.748 20.94H128.536V20.269H117.748V20.94ZM116.566 25.627H128.624V25.005H116.566V25.627ZM116.566 29.895H128.624V29.272H116.566V29.895Z" fill="#231916"/>
<path fill-rule="evenodd" clip-rule="evenodd" d="M115.588 32.463H117.532V21.358H115.588V32.463ZM127.462 32.506H129.464V20.408H127.462V32.506ZM119.421 16.178H121.451V6.61499H119.421V16.178Z" fill="#231916"/>
<path fill-rule="evenodd" clip-rule="evenodd" d="M129.21 8.16602C129.21 8.16602 123.986 18.538 108.507 24.706L108.704 25.256C108.704 25.256 123.788 20.973 131.057 9.30602L129.21 8.16602ZM99.644 10.407C99.644 10.407 100.538 10.01 100.761 9.04102H102.749V10.706H99.543L99.643 10.407H99.644ZM98.948 25.812C98.948 25.812 99.843 25.413 100.067 24.444H102.055V26.109H98.848L98.948 25.812Z" fill="#231916"/>
<path fill-rule="evenodd" clip-rule="evenodd" d="M86.494 11.038H102.738V10.416H86.494V11.038ZM88.253 13.292H100.395V12.622H88.253V13.292ZM88.282 15.632H100.424V15.01H88.282V15.632ZM88.253 17.84H100.395V17.218H88.253V17.84ZM88.253 20.108H100.395V19.486H88.253V20.108ZM77.507 15.913H83.71V15.29H77.507V15.913Z" fill="#231916"/>
<path fill-rule="evenodd" clip-rule="evenodd" d="M82.011 20.65H84.044V15.249H82.011V20.65ZM100.283 10.413C100.283 10.413 100.991 10.099 101.167 9.33301H102.738V10.649H100.204L100.284 10.413H100.283Z" fill="#231916"/>
<path fill-rule="evenodd" clip-rule="evenodd" d="M81.588 15.266C81.588 15.266 82.296 14.952 82.473 14.186H84.043V15.502H81.509L81.589 15.266H81.588ZM79.048 26.319H102.054V25.696H79.048V26.319Z" fill="#231916"/>
<path fill-rule="evenodd" clip-rule="evenodd" d="M99.578 25.693C99.578 25.693 100.286 25.38 100.462 24.613H102.034V25.93H99.499L99.579 25.693H99.578ZM98.411 12.662C98.411 12.662 99.151 12.332 99.337 11.531H100.982V12.908H98.33L98.412 12.662H98.411ZM81.985 15.285C81.985 15.285 82.578 15.02 82.726 14.378H84.044V15.483H81.918L81.985 15.285ZM79.46 8.44502L79.784 7.94502C79.784 7.94502 82.73 8.65102 84.056 11.214L82.524 12.304C82.524 12.304 80.844 9.12302 79.46 8.44402V8.44502ZM88.74 6.71902L89.023 6.37402C89.023 6.37402 90.968 6.59402 92.347 8.66402L90.655 9.57202C90.655 9.57202 90.027 7.69202 88.741 6.71902H88.74ZM96.11 6.98002C96.11 6.98002 95.177 10.066 94.823 10.645H95.37C95.37 10.645 97.235 8.71602 98.489 7.04302L96.109 6.98002H96.11ZM78.164 21.856L82.171 20.029L82.466 20.531L79.46 24.065L78.164 21.856ZM83.938 19.502C83.938 19.502 84.871 21.791 90.606 21.928C90.606 21.928 98.101 22.321 101.882 21.653V23.273C101.882 23.273 85.972 25.041 83.674 20.032L83.938 19.502Z" fill="#231916"/>
<path fill-rule="evenodd" clip-rule="evenodd" d="M87.374 20.897H89.347V11.754H87.374V20.897ZM98.975 20.93H100.977V12.654H98.975V20.93ZM85.843 27.995L86.166 27.671C86.166 27.671 88.465 28.201 89.82 30.204L88.288 31.53C88.288 31.53 86.461 28.2 85.843 27.995ZM94.717 24.173H96.716V30.807C96.716 31.463 96.559 32.097 96.023 32.491C95.721 32.713 95.118 33.013 94.729 32.901C94.221 32.754 94.315 32.105 94.043 31.766C93.755 31.409 93.067 31.322 92.637 31.322L92.653 30.904H93.879C93.879 30.904 94.741 31.033 94.741 30.194C94.741 29.356 94.717 24.174 94.717 24.174V24.173ZM46.028 11.853H58.563V11.237H46.028V11.853ZM60.577 9.40997H68.219V8.79297H60.577V9.40997ZM61.043 19.637H69.894V19.068H61.044L61.043 19.637Z" fill="#231916"/>
<path fill-rule="evenodd" clip-rule="evenodd" d="M50.793 16.21H52.806V7.08203H50.793V16.21ZM59.826 32.549H61.696V7.36203H59.826V32.549ZM50.793 32.698H52.806V20.933H50.793V32.698ZM55.492 11.23C55.492 11.23 56.377 10.837 56.599 9.87803H58.567V11.526H55.393L55.492 11.231V11.23ZM55.492 25.376C55.492 25.376 56.377 24.982 56.599 24.022H58.567V25.672H55.393L55.492 25.376ZM66.214 8.85803C66.214 8.85803 67.101 8.46403 67.323 7.50403H69.29V9.15303H66.116L66.214 8.85803ZM55.587 20.598C55.587 20.598 56.472 20.204 56.693 19.244H58.662V20.894H55.488L55.587 20.598ZM55.546 15.836C55.546 15.836 56.431 15.442 56.653 14.483H58.621V16.13H55.447L55.546 15.836Z" fill="#231916"/>
<path fill-rule="evenodd" clip-rule="evenodd" d="M45.032 16.46H58.618V15.844H45.032V16.46ZM45.108 21.193H58.65V20.577H45.108V21.193Z" fill="#231916"/>
<path fill-rule="evenodd" clip-rule="evenodd" d="M56.216 20.5471C56.216 20.5471 56.916 20.2341 57.09 19.4771H58.646V20.7791H56.138L56.216 20.5471ZM46.037 25.8771H58.57V25.2601H46.037V25.8771ZM47.905 17.1471L48.333 16.8951C48.333 16.8951 49.947 18.5281 50.666 20.0061L49.092 20.6861C49.092 20.6861 48.295 17.5561 47.905 17.1461V17.1471ZM53.896 16.7001L56.289 17.6541C56.289 17.6541 54.051 20.0451 53.312 20.6281L53.002 20.4341C53.002 20.4341 53.624 18.5271 53.896 16.6991V16.7001ZM67.337 8.79007V15.6111C67.337 15.6111 67.441 16.5191 66.673 16.5191H65.871V16.9711C65.871 16.9711 67.022 17.0411 67.022 17.7051C67.022 18.3671 69.29 18.8551 69.29 15.6111V8.72107L67.337 8.79107V8.79007ZM67.879 19.0461C67.879 19.0461 67.197 27.1261 62.236 32.7451L62.445 33.0871C62.445 33.0871 68.895 27.5211 69.942 19.2221L67.879 19.0461Z" fill="#231916"/>
<path fill-rule="evenodd" clip-rule="evenodd" d="M62.86 20.394C62.86 20.394 64.26 27.824 71.146 30.888L69.57 32.9C69.57 32.9 63.706 30.022 62.423 20.482L62.86 20.394Z" fill="#231916"/>
<path fill-rule="evenodd" clip-rule="evenodd" d="M143.315 16.397H144.325V10.199H142.441V11.447H141.453V9.26697H148.333V11.447H147.345V10.199H145.461V16.397H146.471V17.282H143.315V16.397ZM151.531 16.397H152.531V10.142H151.531V9.26797H154.676V10.142H153.666V12.81H157.82V10.142H156.81V9.26797H159.955V10.142H158.955V16.397H159.955V17.282H156.811V16.397H157.821V13.74H153.665V16.397H154.675V17.282H151.531V16.397ZM163.426 16.397H164.426V10.142H163.426V9.26797H169.226V11.129H168.24V10.199H165.56V12.775H168.398V13.706H165.56V16.352H168.432V15.386H169.42V17.282H163.426V16.397ZM145.15 26.96C146.024 26.96 146.603 26.392 146.603 25.45C146.603 24.826 146.353 24.394 145.854 24.19C145.593 24.088 145.252 24.043 144.866 24.043H143.538V26.959H145.15V26.96ZM141.404 30.24H142.404V23.986H141.404V23.112H144.878C145.445 23.112 145.911 23.134 146.353 23.282C147.193 23.566 147.749 24.27 147.749 25.36C147.749 26.518 147.114 27.345 146.092 27.607V27.63C146.092 27.63 146.296 27.743 146.432 28.004L147.568 29.979C147.693 30.196 147.841 30.241 148.124 30.241H148.362V31.126H147.682C147 31.126 146.842 31.002 146.569 30.524L145.331 28.334C145.127 27.993 144.98 27.891 144.491 27.891H143.538V30.241H144.525V31.126H141.404V30.241V30.24ZM151.585 30.24H152.584V23.986H151.584V23.112H157.385V24.973H156.398V24.043H153.718V26.619H156.557V27.55H153.718V30.196H156.591V29.23H157.579V31.126H151.585V30.24ZM164.649 27.187C165.012 27.187 165.296 27.13 165.545 27.029C166.056 26.801 166.352 26.289 166.352 25.598C166.352 24.95 166.09 24.474 165.636 24.236C165.386 24.099 165.046 24.042 164.661 24.042H163.161V27.187H164.649ZM161.027 30.241H162.027V23.986H161.027V23.111H164.762C165.25 23.111 165.738 23.146 166.136 23.327C166.965 23.679 167.498 24.531 167.498 25.597C167.498 26.721 166.908 27.63 165.988 27.947C165.613 28.084 165.228 28.117 164.785 28.117H163.162V30.241H164.172V31.126H161.027V30.241ZM174.773 30.252C176.396 30.252 177.713 28.867 177.713 27.062C177.713 25.313 176.396 23.975 174.773 23.975C173.138 23.975 171.821 25.313 171.821 27.062C171.821 28.867 173.138 30.252 174.773 30.252ZM174.773 22.976C177.088 22.976 178.893 24.758 178.893 27.062C178.893 29.423 177.088 31.262 174.773 31.262C172.446 31.262 170.652 29.423 170.652 27.062C170.652 24.758 172.446 22.976 174.772 22.976H174.773ZM185.975 26.96C186.849 26.96 187.428 26.392 187.428 25.45C187.428 24.826 187.178 24.394 186.678 24.19C186.418 24.088 186.078 24.043 185.691 24.043H184.363V26.959H185.975V26.96ZM182.229 30.24H183.228V23.986H182.228V23.112H185.703C186.27 23.112 186.735 23.134 187.178 23.282C188.018 23.566 188.574 24.27 188.574 25.36C188.574 26.518 187.939 27.345 186.917 27.607V27.63C186.917 27.63 187.121 27.743 187.257 28.004L188.392 29.979C188.518 30.196 188.665 30.241 188.949 30.241H189.187V31.126H188.507C187.825 31.126 187.666 31.002 187.394 30.524L186.157 28.334C185.952 27.993 185.805 27.891 185.317 27.891H184.363V30.241H185.35V31.126H182.229V30.241V30.24ZM193.953 30.24H194.963V24.043H193.079V25.291H192.092V23.111H198.97V25.291H197.983V24.043H196.1V30.241H197.11V31.126H193.954L193.953 30.24ZM202.17 30.24H203.169V23.986H202.17V23.112H207.97V24.973H206.983V24.043H204.304V26.619H207.142V27.55H204.304V30.196H207.176V29.23H208.164V31.126H202.17V30.24ZM215.359 26.96C216.233 26.96 216.812 26.392 216.812 25.45C216.812 24.826 216.562 24.394 216.062 24.19C215.802 24.088 215.462 24.043 215.075 24.043H213.747V26.959H215.359V26.96ZM211.613 30.24H212.612V23.986H211.612V23.112H215.086C215.654 23.112 216.119 23.134 216.562 23.282C217.402 23.566 217.958 24.27 217.958 25.36C217.958 26.518 217.323 27.345 216.301 27.607V27.63C216.301 27.63 216.505 27.743 216.641 28.004L217.777 29.979C217.902 30.196 218.049 30.241 218.333 30.241H218.571V31.126H217.891C217.209 31.126 217.05 31.002 216.777 30.524L215.541 28.334C215.336 27.993 215.188 27.891 214.701 27.891H213.747V30.241H214.735V31.126H211.613V30.241V30.24Z" fill="#231916"/>
<path fill-rule="evenodd" clip-rule="evenodd" d="M37.301 32.302L22.688 28.842V10.766L37.301 6.53601V32.302Z" fill="#C7000D"/>
<path fill-rule="evenodd" clip-rule="evenodd" d="M0 39.609L23.073 28.84V10.767L0 0V39.609Z" fill="#E60013"/>
</g>
<defs>
<clipPath id="clip0_1_226">
<rect width="219" height="40" fill="white"/>
</clipPath>
</defs>
</svg>
